<mxfile host="65bd71144e">
    <diagram name="PÃ¡gina-1" id="TTp-K46U8V-8WiusqMop">
        <mxGraphModel dx="-1546" dy="1592" grid="1" gridSize="10" guides="1" tooltips="1" connect="1" arrows="1" fold="1" page="1" pageScale="1" pageWidth="827" pageHeight="1169" math="0" shadow="0">
            <root>
                <mxCell id="0"/>
                <mxCell id="1" parent="0"/>
                <mxCell id="191" value="" style="group" vertex="1" connectable="0" parent="1">
                    <mxGeometry x="3250" width="90" height="90" as="geometry"/>
                </mxCell>
                <mxCell id="192" value="" style="whiteSpace=wrap;html=1;fillColor=#494949;strokeColor=#494949;container=0;strokeWidth=2;" vertex="1" parent="191">
                    <mxGeometry x="4.0694720320805733e-14" y="27.5" width="89.99999999999989" height="60" as="geometry"/>
                </mxCell>
                <mxCell id="193" value="&lt;b style=&quot;color: rgb(73, 73, 73); font-family: Nunito;&quot;&gt;Text&lt;/b&gt;" style="rounded=1;whiteSpace=wrap;html=1;arcSize=5;fillColor=#F7F7F7;strokeColor=#494949;strokeWidth=2;container=0;absoluteArcSize=1;" vertex="1" parent="191">
                    <mxGeometry x="-1.7440594423202453e-14" width="90.00000000000001" height="30" as="geometry"/>
                </mxCell>
                <mxCell id="194" value="&lt;span style=&quot;font-family: Nunito;&quot;&gt;...&lt;/span&gt;&lt;font face=&quot;Nunito&quot;&gt;&lt;br&gt;&lt;/font&gt;" style="rounded=1;whiteSpace=wrap;html=1;arcSize=6;fillColor=#F7F7F7;strokeColor=#494949;align=left;perimeterSpacing=0;spacingLeft=2;fontColor=#494949;strokeWidth=2;container=0;absoluteArcSize=1;" vertex="1" parent="191">
                    <mxGeometry x="-1.7440594423202453e-14" y="30" width="90.00000000000001" height="30" as="geometry"/>
                </mxCell>
                <mxCell id="195" value="&lt;font data-font-src=&quot;https://fonts.googleapis.com/css?family=Nunito&quot;&gt;&lt;span style=&quot;font-family: Nunito;&quot;&gt;+ execute()&lt;/span&gt;&lt;br&gt;&lt;/font&gt;" style="rounded=1;whiteSpace=wrap;html=1;arcSize=6;fillColor=#F7F7F7;strokeColor=#494949;align=left;spacingLeft=2;fontColor=#494949;strokeWidth=2;container=0;absoluteArcSize=1;" vertex="1" parent="191">
                    <mxGeometry x="4.0694720320805733e-14" y="60" width="89.99999999999989" height="30" as="geometry"/>
                </mxCell>
                <mxCell id="196" value="" style="group" vertex="1" connectable="0" parent="1">
                    <mxGeometry x="2920" y="230" width="110" height="90" as="geometry"/>
                </mxCell>
                <mxCell id="197" value="" style="whiteSpace=wrap;html=1;fillColor=#494949;strokeColor=#494949;container=0;strokeWidth=2;" vertex="1" parent="196">
                    <mxGeometry x="4.9737991503207e-14" y="27.5" width="109.99999999999986" height="60" as="geometry"/>
                </mxCell>
                <mxCell id="198" value="&lt;b style=&quot;color: rgb(73, 73, 73); font-family: Nunito;&quot;&gt;FirstSentence&lt;/b&gt;" style="rounded=1;whiteSpace=wrap;html=1;arcSize=5;fillColor=#F7F7F7;strokeColor=#494949;strokeWidth=2;container=0;absoluteArcSize=1;" vertex="1" parent="196">
                    <mxGeometry x="-2.1316282072802996e-14" width="110.00000000000001" height="30" as="geometry"/>
                </mxCell>
                <mxCell id="199" value="&lt;span style=&quot;font-family: Nunito;&quot;&gt;...&lt;/span&gt;&lt;font face=&quot;Nunito&quot;&gt;&lt;br&gt;&lt;/font&gt;" style="rounded=1;whiteSpace=wrap;html=1;arcSize=6;fillColor=#F7F7F7;strokeColor=#494949;align=left;perimeterSpacing=0;spacingLeft=2;fontColor=#494949;strokeWidth=2;container=0;absoluteArcSize=1;" vertex="1" parent="196">
                    <mxGeometry x="-2.1316282072802996e-14" y="30" width="110.00000000000001" height="30" as="geometry"/>
                </mxCell>
                <mxCell id="200" value="&lt;font data-font-src=&quot;https://fonts.googleapis.com/css?family=Nunito&quot;&gt;&lt;span style=&quot;font-family: Nunito;&quot;&gt;+ execute()&lt;/span&gt;&lt;br&gt;&lt;/font&gt;" style="rounded=1;whiteSpace=wrap;html=1;arcSize=6;fillColor=#F7F7F7;strokeColor=#494949;align=left;spacingLeft=2;fontColor=#494949;strokeWidth=2;container=0;absoluteArcSize=1;" vertex="1" parent="196">
                    <mxGeometry x="4.9737991503207e-14" y="60" width="109.99999999999986" height="30" as="geometry"/>
                </mxCell>
                <mxCell id="202" value="" style="group" vertex="1" connectable="0" parent="1">
                    <mxGeometry x="3080" y="230" width="110" height="90" as="geometry"/>
                </mxCell>
                <mxCell id="203" value="" style="whiteSpace=wrap;html=1;fillColor=#494949;strokeColor=#494949;container=0;strokeWidth=2;" vertex="1" parent="202">
                    <mxGeometry x="4.9737991503207e-14" y="27.5" width="109.99999999999986" height="60" as="geometry"/>
                </mxCell>
                <mxCell id="204" value="&lt;b style=&quot;color: rgb(73, 73, 73); font-family: Nunito;&quot;&gt;SecondSentence&lt;/b&gt;" style="rounded=1;whiteSpace=wrap;html=1;arcSize=5;fillColor=#F7F7F7;strokeColor=#494949;strokeWidth=2;container=0;absoluteArcSize=1;" vertex="1" parent="202">
                    <mxGeometry x="-2.1316282072802996e-14" width="110.00000000000001" height="30" as="geometry"/>
                </mxCell>
                <mxCell id="205" value="&lt;span style=&quot;font-family: Nunito;&quot;&gt;...&lt;/span&gt;&lt;font face=&quot;Nunito&quot;&gt;&lt;br&gt;&lt;/font&gt;" style="rounded=1;whiteSpace=wrap;html=1;arcSize=6;fillColor=#F7F7F7;strokeColor=#494949;align=left;perimeterSpacing=0;spacingLeft=2;fontColor=#494949;strokeWidth=2;container=0;absoluteArcSize=1;" vertex="1" parent="202">
                    <mxGeometry x="-2.1316282072802996e-14" y="30" width="110.00000000000001" height="30" as="geometry"/>
                </mxCell>
                <mxCell id="206" value="&lt;font data-font-src=&quot;https://fonts.googleapis.com/css?family=Nunito&quot;&gt;&lt;span style=&quot;font-family: Nunito;&quot;&gt;+ execute()&lt;/span&gt;&lt;br&gt;&lt;/font&gt;" style="rounded=1;whiteSpace=wrap;html=1;arcSize=6;fillColor=#F7F7F7;strokeColor=#494949;align=left;spacingLeft=2;fontColor=#494949;strokeWidth=2;container=0;absoluteArcSize=1;" vertex="1" parent="202">
                    <mxGeometry x="4.9737991503207e-14" y="60" width="109.99999999999986" height="30" as="geometry"/>
                </mxCell>
                <mxCell id="207" value="" style="group" vertex="1" connectable="0" parent="1">
                    <mxGeometry x="3240" y="230" width="110" height="90" as="geometry"/>
                </mxCell>
                <mxCell id="208" value="" style="whiteSpace=wrap;html=1;fillColor=#494949;strokeColor=#494949;container=0;strokeWidth=2;" vertex="1" parent="207">
                    <mxGeometry x="4.9737991503207e-14" y="27.5" width="109.99999999999986" height="60" as="geometry"/>
                </mxCell>
                <mxCell id="209" value="&lt;b style=&quot;color: rgb(73, 73, 73); font-family: Nunito;&quot;&gt;ThirdSentence&lt;/b&gt;" style="rounded=1;whiteSpace=wrap;html=1;arcSize=5;fillColor=#F7F7F7;strokeColor=#494949;strokeWidth=2;container=0;absoluteArcSize=1;" vertex="1" parent="207">
                    <mxGeometry x="-2.1316282072802996e-14" width="110.00000000000001" height="30" as="geometry"/>
                </mxCell>
                <mxCell id="210" value="&lt;span style=&quot;font-family: Nunito;&quot;&gt;...&lt;/span&gt;&lt;font face=&quot;Nunito&quot;&gt;&lt;br&gt;&lt;/font&gt;" style="rounded=1;whiteSpace=wrap;html=1;arcSize=6;fillColor=#F7F7F7;strokeColor=#494949;align=left;perimeterSpacing=0;spacingLeft=2;fontColor=#494949;strokeWidth=2;container=0;absoluteArcSize=1;" vertex="1" parent="207">
                    <mxGeometry x="-2.1316282072802996e-14" y="30" width="110.00000000000001" height="30" as="geometry"/>
                </mxCell>
                <mxCell id="211" value="&lt;font data-font-src=&quot;https://fonts.googleapis.com/css?family=Nunito&quot;&gt;&lt;span style=&quot;font-family: Nunito;&quot;&gt;+ execute()&lt;/span&gt;&lt;br&gt;&lt;/font&gt;" style="rounded=1;whiteSpace=wrap;html=1;arcSize=6;fillColor=#F7F7F7;strokeColor=#494949;align=left;spacingLeft=2;fontColor=#494949;strokeWidth=2;container=0;absoluteArcSize=1;" vertex="1" parent="207">
                    <mxGeometry x="4.9737991503207e-14" y="60" width="109.99999999999986" height="30" as="geometry"/>
                </mxCell>
                <mxCell id="212" value="" style="group" vertex="1" connectable="0" parent="1">
                    <mxGeometry x="3400" y="230" width="110" height="90" as="geometry"/>
                </mxCell>
                <mxCell id="213" value="" style="whiteSpace=wrap;html=1;fillColor=#494949;strokeColor=#494949;container=0;strokeWidth=2;" vertex="1" parent="212">
                    <mxGeometry x="4.9737991503207e-14" y="27.5" width="109.99999999999986" height="60" as="geometry"/>
                </mxCell>
                <mxCell id="214" value="&lt;b style=&quot;color: rgb(73, 73, 73); font-family: Nunito;&quot;&gt;FourthSentence&lt;/b&gt;" style="rounded=1;whiteSpace=wrap;html=1;arcSize=5;fillColor=#F7F7F7;strokeColor=#494949;strokeWidth=2;container=0;absoluteArcSize=1;" vertex="1" parent="212">
                    <mxGeometry x="-2.1316282072802996e-14" width="110.00000000000001" height="30" as="geometry"/>
                </mxCell>
                <mxCell id="215" value="&lt;span style=&quot;font-family: Nunito;&quot;&gt;...&lt;/span&gt;&lt;font face=&quot;Nunito&quot;&gt;&lt;br&gt;&lt;/font&gt;" style="rounded=1;whiteSpace=wrap;html=1;arcSize=6;fillColor=#F7F7F7;strokeColor=#494949;align=left;perimeterSpacing=0;spacingLeft=2;fontColor=#494949;strokeWidth=2;container=0;absoluteArcSize=1;" vertex="1" parent="212">
                    <mxGeometry x="-2.1316282072802996e-14" y="30" width="110.00000000000001" height="30" as="geometry"/>
                </mxCell>
                <mxCell id="216" value="&lt;font data-font-src=&quot;https://fonts.googleapis.com/css?family=Nunito&quot;&gt;&lt;span style=&quot;font-family: Nunito;&quot;&gt;+ execute()&lt;/span&gt;&lt;br&gt;&lt;/font&gt;" style="rounded=1;whiteSpace=wrap;html=1;arcSize=6;fillColor=#F7F7F7;strokeColor=#494949;align=left;spacingLeft=2;fontColor=#494949;strokeWidth=2;container=0;absoluteArcSize=1;" vertex="1" parent="212">
                    <mxGeometry x="4.9737991503207e-14" y="60" width="109.99999999999986" height="30" as="geometry"/>
                </mxCell>
                <mxCell id="217" value="" style="group" vertex="1" connectable="0" parent="1">
                    <mxGeometry x="3560" y="230" width="110" height="90" as="geometry"/>
                </mxCell>
                <mxCell id="218" value="" style="whiteSpace=wrap;html=1;fillColor=#494949;strokeColor=#494949;container=0;strokeWidth=2;" vertex="1" parent="217">
                    <mxGeometry x="4.9737991503207e-14" y="27.5" width="109.99999999999986" height="60" as="geometry"/>
                </mxCell>
                <mxCell id="219" value="&lt;b style=&quot;color: rgb(73, 73, 73); font-family: Nunito;&quot;&gt;FifthSentence&lt;/b&gt;" style="rounded=1;whiteSpace=wrap;html=1;arcSize=5;fillColor=#F7F7F7;strokeColor=#494949;strokeWidth=2;container=0;absoluteArcSize=1;" vertex="1" parent="217">
                    <mxGeometry x="-2.1316282072802996e-14" width="110.00000000000001" height="30" as="geometry"/>
                </mxCell>
                <mxCell id="220" value="&lt;span style=&quot;font-family: Nunito;&quot;&gt;...&lt;/span&gt;&lt;font face=&quot;Nunito&quot;&gt;&lt;br&gt;&lt;/font&gt;" style="rounded=1;whiteSpace=wrap;html=1;arcSize=6;fillColor=#F7F7F7;strokeColor=#494949;align=left;perimeterSpacing=0;spacingLeft=2;fontColor=#494949;strokeWidth=2;container=0;absoluteArcSize=1;" vertex="1" parent="217">
                    <mxGeometry x="-2.1316282072802996e-14" y="30" width="110.00000000000001" height="30" as="geometry"/>
                </mxCell>
                <mxCell id="221" value="&lt;font data-font-src=&quot;https://fonts.googleapis.com/css?family=Nunito&quot;&gt;&lt;span style=&quot;font-family: Nunito;&quot;&gt;+ execute()&lt;/span&gt;&lt;br&gt;&lt;/font&gt;" style="rounded=1;whiteSpace=wrap;html=1;arcSize=6;fillColor=#F7F7F7;strokeColor=#494949;align=left;spacingLeft=2;fontColor=#494949;strokeWidth=2;container=0;absoluteArcSize=1;" vertex="1" parent="217">
                    <mxGeometry x="4.9737991503207e-14" y="60" width="109.99999999999986" height="30" as="geometry"/>
                </mxCell>
                <mxCell id="227" style="edgeStyle=none;html=1;endArrow=open;rounded=0;strokeColor=#666666;fontSource=https%3A%2F%2Ffonts.googleapis.com%2Fcss%3Ffamily%3DNunito;endFill=0;strokeWidth=2;startArrow=none;startFill=0;startSize=15;endSize=10;sourcePerimeterSpacing=1;targetPerimeterSpacing=1;dashed=1;" edge="1" parent="1" source="195" target="209">
                    <mxGeometry relative="1" as="geometry"/>
                </mxCell>
                <mxCell id="228" style="edgeStyle=orthogonalEdgeStyle;html=1;entryX=0.5;entryY=0;entryDx=0;entryDy=0;curved=1;exitX=0.25;exitY=1;exitDx=0;exitDy=0;endArrow=open;rounded=0;strokeColor=#666666;fontSource=https%3A%2F%2Ffonts.googleapis.com%2Fcss%3Ffamily%3DNunito;endFill=0;strokeWidth=2;startArrow=none;startFill=0;startSize=15;endSize=10;sourcePerimeterSpacing=1;targetPerimeterSpacing=1;dashed=1;" edge="1" parent="1" source="195" target="204">
                    <mxGeometry relative="1" as="geometry"/>
                </mxCell>
                <mxCell id="229" style="edgeStyle=orthogonalEdgeStyle;html=1;entryX=0.5;entryY=0;entryDx=0;entryDy=0;curved=1;exitX=0.75;exitY=1;exitDx=0;exitDy=0;endArrow=open;rounded=0;strokeColor=#666666;fontSource=https%3A%2F%2Ffonts.googleapis.com%2Fcss%3Ffamily%3DNunito;endFill=0;strokeWidth=2;startArrow=none;startFill=0;startSize=15;endSize=10;sourcePerimeterSpacing=1;targetPerimeterSpacing=1;dashed=1;" edge="1" parent="1" source="195" target="214">
                    <mxGeometry relative="1" as="geometry"/>
                </mxCell>
                <mxCell id="230" style="edgeStyle=orthogonalEdgeStyle;html=1;entryX=0.5;entryY=0;entryDx=0;entryDy=0;curved=1;exitX=0;exitY=0.75;exitDx=0;exitDy=0;endArrow=open;rounded=0;strokeColor=#666666;fontSource=https%3A%2F%2Ffonts.googleapis.com%2Fcss%3Ffamily%3DNunito;endFill=0;strokeWidth=2;startArrow=none;startFill=0;startSize=15;endSize=10;sourcePerimeterSpacing=1;targetPerimeterSpacing=1;dashed=1;" edge="1" parent="1" source="195" target="198">
                    <mxGeometry relative="1" as="geometry"/>
                </mxCell>
                <mxCell id="231" style="edgeStyle=orthogonalEdgeStyle;html=1;entryX=0.5;entryY=0;entryDx=0;entryDy=0;exitX=1;exitY=0.75;exitDx=0;exitDy=0;curved=1;endArrow=open;rounded=0;strokeColor=#666666;fontSource=https%3A%2F%2Ffonts.googleapis.com%2Fcss%3Ffamily%3DNunito;endFill=0;strokeWidth=2;startArrow=none;startFill=0;startSize=15;endSize=10;sourcePerimeterSpacing=1;targetPerimeterSpacing=1;dashed=1;" edge="1" parent="1" source="195" target="219">
                    <mxGeometry relative="1" as="geometry"/>
                </mxCell>
                <mxCell id="233" style="edgeStyle=orthogonalEdgeStyle;html=1;entryX=1;entryY=0.5;entryDx=0;entryDy=0;endArrow=none;rounded=0;strokeColor=#C3C3C3;fontSource=https%3A%2F%2Ffonts.googleapis.com%2Fcss%3Ffamily%3DFira%2BCode%2BMedium;endFill=0;sourcePerimeterSpacing=0;targetPerimeterSpacing=0;dashed=1;strokeWidth=2;" edge="1" parent="1" source="232" target="195">
                    <mxGeometry relative="1" as="geometry"/>
                </mxCell>
                <mxCell id="232" value="&lt;div style=&quot;line-height: 26px;&quot;&gt;&lt;div style=&quot;line-height: 26px;&quot;&gt;&lt;div style=&quot;line-height: 26px;&quot;&gt;&lt;div style=&quot;line-height: 167%;&quot;&gt;&lt;div style=&quot;line-height: 167%;&quot;&gt;&lt;div style=&quot;line-height: 157%;&quot;&gt;&lt;div style=&quot;line-height: 157%;&quot;&gt;&lt;font data-font-src=&quot;https://fonts.googleapis.com/css?family=Fira+Code+Medium&quot; face=&quot;Fira Code Medium&quot;&gt;let sentences = [&lt;/font&gt;&lt;/div&gt;&lt;div style=&quot;line-height: 157%;&quot;&gt;&lt;font data-font-src=&quot;https://fonts.googleapis.com/css?family=Fira+Code+Medium&quot; face=&quot;Fira Code Medium&quot;&gt;&amp;nbsp; &amp;nbsp; new FirstSentence(),&lt;/font&gt;&lt;/div&gt;&lt;div style=&quot;line-height: 157%;&quot;&gt;&lt;font data-font-src=&quot;https://fonts.googleapis.com/css?family=Fira+Code+Medium&quot; face=&quot;Fira Code Medium&quot;&gt;&amp;nbsp; &amp;nbsp; new SecondSentence(),&lt;/font&gt;&lt;/div&gt;&lt;div style=&quot;line-height: 157%;&quot;&gt;&lt;font data-font-src=&quot;https://fonts.googleapis.com/css?family=Fira+Code+Medium&quot; face=&quot;Fira Code Medium&quot;&gt;&amp;nbsp; &amp;nbsp; new ThirdSentence(),&lt;/font&gt;&lt;/div&gt;&lt;div style=&quot;line-height: 157%;&quot;&gt;&lt;font data-font-src=&quot;https://fonts.googleapis.com/css?family=Fira+Code+Medium&quot; face=&quot;Fira Code Medium&quot;&gt;&amp;nbsp; &amp;nbsp; new FourthSentence(),&lt;/font&gt;&lt;/div&gt;&lt;div style=&quot;line-height: 157%;&quot;&gt;&lt;font data-font-src=&quot;https://fonts.googleapis.com/css?family=Fira+Code+Medium&quot; face=&quot;Fira Code Medium&quot;&gt;&amp;nbsp; &amp;nbsp; new FifthSentence(),&lt;/font&gt;&lt;/div&gt;&lt;div style=&quot;line-height: 157%;&quot;&gt;&lt;font data-font-src=&quot;https://fonts.googleapis.com/css?family=Fira+Code+Medium&quot; face=&quot;Fira Code Medium&quot;&gt;];&lt;/font&gt;&lt;/div&gt;&lt;div style=&quot;line-height: 157%;&quot;&gt;&lt;font data-font-src=&quot;https://fonts.googleapis.com/css?family=Fira+Code+Medium&quot; face=&quot;Fira Code Medium&quot;&gt;const rawSentences = sentences.map((sentence) =&amp;gt; sentence.execute());&lt;/font&gt;&lt;/div&gt;&lt;div style=&quot;line-height: 157%;&quot;&gt;&lt;font data-font-src=&quot;https://fonts.googleapis.com/css?family=Fira+Code+Medium&quot; face=&quot;Fira Code Medium&quot;&gt;return rawSentences.join(&quot;\n&quot;);&lt;/font&gt;&lt;/div&gt;&lt;/div&gt;&lt;/div&gt;&lt;/div&gt;&lt;/div&gt;&lt;/div&gt;&lt;/div&gt;" style="rounded=0;whiteSpace=wrap;html=1;fontColor=#494949;strokeColor=#C3C3C3;fillColor=#EBEBEB;align=left;verticalAlign=middle;spacingLeft=2;spacingRight=1;strokeWidth=2;" vertex="1" parent="1">
                    <mxGeometry x="3550" y="-100" width="520" height="190" as="geometry"/>
                </mxCell>
                <mxCell id="234" value="&lt;div style=&quot;line-height: 26px;&quot;&gt;&lt;div style=&quot;line-height: 26px;&quot;&gt;&lt;div style=&quot;line-height: 26px;&quot;&gt;&lt;div style=&quot;line-height: 26px;&quot;&gt;&lt;font data-font-src=&quot;https://fonts.googleapis.com/css?family=Fira+Code+Medium&quot; face=&quot;Fira Code Medium&quot;&gt;return &quot;First sentence&quot;;&lt;/font&gt;&lt;/div&gt;&lt;/div&gt;&lt;/div&gt;&lt;/div&gt;" style="rounded=0;whiteSpace=wrap;html=1;fontColor=#494949;strokeColor=#C3C3C3;fillColor=#EBEBEB;align=left;verticalAlign=middle;spacingLeft=2;spacingRight=1;strokeWidth=2;" vertex="1" parent="1">
                    <mxGeometry x="2880" y="400" width="190" height="25" as="geometry"/>
                </mxCell>
                <mxCell id="235" style="edgeStyle=orthogonalEdgeStyle;html=1;entryX=0.5;entryY=0;entryDx=0;entryDy=0;fontFamily=Helvetica;fontSource=https%3A%2F%2Ffonts.googleapis.com%2Fcss%3Ffamily%3DFira%2BCode%2BMedium;sourcePerimeterSpacing=2;targetPerimeterSpacing=1;endArrow=none;rounded=0;strokeColor=#C3C3C3;endFill=0;dashed=1;strokeWidth=2;" edge="1" parent="1" source="200" target="234">
                    <mxGeometry relative="1" as="geometry"/>
                </mxCell>
            </root>
        </mxGraphModel>
    </diagram>
</mxfile>
